<svg width="59" height="24" viewBox="0 0 59 24" fill="none" xmlns="http://www.w3.org/2000/svg">
<g clip-path="url(#clip0_3456_3236)">
<path d="M10.3122 8.88004L8.32586 10.8249C7.62801 10.0928 6.82593 9.73724 5.87432 9.73724C4.33059 9.73724 3.14788 10.9093 3.14788 12.4986C3.14788 14.088 4.35325 15.2375 5.87432 15.2375C6.82442 15.2375 7.62801 14.8834 8.32586 14.1498L10.3122 16.0947C9.10829 17.4128 7.62801 18.0606 5.87432 18.0606C4.22637 18.0606 2.83067 17.5379 1.69025 16.4713C0.570968 15.4062 0 14.088 0 12.4986C0 10.9093 0.570968 9.59111 1.69025 8.52451C2.83067 7.45791 4.22637 6.91406 5.87432 6.91406C7.62801 6.91406 9.10678 7.56336 10.3122 8.88004Z" fill="#F5F5F7"/>
<path d="M10.9678 12.4979C10.9678 10.8452 11.5176 9.50597 12.5946 8.50264C13.6731 7.47823 15.0673 6.97656 16.7364 6.97656C18.4055 6.97656 19.6743 7.49932 20.6893 8.52373C21.7029 9.54815 22.2104 10.8031 22.2104 12.3307C22.2104 12.6862 22.1893 13.0206 22.1681 13.334H14.1156C14.1791 14.5889 15.2787 15.4039 16.9478 15.4039C17.9402 15.4039 18.8073 15.0695 19.5474 14.3795L21.3857 16.115C20.1395 17.391 18.5973 18.0388 16.7998 18.0388C15.0023 18.0388 13.6519 17.5371 12.5734 16.5534C11.4964 15.55 10.9678 14.2319 10.9678 12.5792V12.4964V12.4979ZM19.0414 11.3047C19.0414 10.321 18.0052 9.54815 16.7379 9.54815C15.3648 9.54815 14.244 10.3225 14.161 11.3047H19.0414Z" fill="#F5F5F7"/>
<path d="M23.7737 17.791V7.24852H26.9216V8.5667C27.3657 7.64623 28.5484 7.01953 29.9864 7.01953C32.5422 7.01953 34.0224 8.65107 34.0224 11.3914V14.0473C34.0224 14.8639 34.1916 15.1576 34.7188 15.1576H34.9318L35.0571 15.135V17.7699C34.8034 17.8753 34.3381 17.916 33.6841 17.916C31.8035 17.916 30.8731 16.9127 30.8731 14.9045V11.7665C30.8731 10.5327 30.2175 9.77943 28.9698 9.77943C27.7222 9.77943 26.9201 10.6381 26.9201 11.872V17.791H23.7722H23.7737Z" fill="#F5F5F7"/>
<path d="M37.5313 14.2763C38.1219 14.9662 39.2427 15.4257 40.4481 15.4257C41.525 15.4257 42.0537 15.1335 42.0537 14.5685C42.0537 14.3591 41.9268 14.1919 41.6942 14.0669C41.4616 13.9418 41.0387 13.7942 40.4042 13.648C39.7713 13.5019 39.2835 13.3558 38.9663 13.2503C37.3395 12.6854 36.5162 11.7227 36.5162 10.3217C36.5162 9.2551 36.918 8.41749 37.7201 7.83297C38.5237 7.22585 39.4949 6.93359 40.658 6.93359C42.1579 6.93359 43.3633 7.39308 44.3134 8.29245L42.8135 10.3413C42.244 9.81854 41.4827 9.56846 40.5734 9.56846C39.8967 9.56846 39.5161 9.84113 39.5161 10.2373C39.5161 10.51 39.6218 10.6561 39.9602 10.8023C40.362 10.9695 41.2486 11.1171 42.4328 11.5344C44.1865 12.1205 45.0536 13.1238 45.0536 14.5248C45.0536 16.6791 43.4902 18.0802 40.362 18.0802C38.2911 18.0802 36.7488 17.4535 35.7126 16.1985L37.5298 14.2748L37.5313 14.2763Z" fill="#F5F5F7"/>
<path d="M47.5898 8.6499C48.6048 7.5833 49.8721 7.06055 51.3721 7.06055C52.9792 7.06055 54.2254 7.70985 54.5426 8.62881V7.24886H57.692V14.0884C57.692 14.9245 57.9034 15.2604 58.4744 15.2604C58.6224 15.2604 58.8128 15.2393 59.0016 15.2182V17.8124C58.6632 17.9164 58.1995 17.9796 57.5862 17.9796C56.8884 17.9796 56.2978 17.8546 55.8537 17.603C55.3673 17.2897 55.0501 16.913 54.9021 16.4731C54.2042 17.4976 53.0427 17.9992 51.3721 17.9992C49.8721 17.9992 48.6048 17.4765 47.5898 16.431C46.5974 15.3644 46.0898 14.0688 46.0898 12.5201C46.0898 10.9714 46.5974 9.69692 47.5898 8.65141V8.6499ZM53.9082 14.4017C54.458 13.879 54.7314 13.2507 54.7314 12.5186C54.7314 11.7864 54.4565 11.1582 53.9082 10.6566C53.3795 10.1338 52.7239 9.88372 51.943 9.88372C51.1621 9.88372 50.5473 10.1338 50.0186 10.6566C49.49 11.1582 49.2377 11.7864 49.2377 12.5186C49.2377 13.2507 49.4915 13.8774 50.0186 14.4017C50.5473 14.9034 51.1817 15.155 51.943 15.155C52.7043 15.155 53.3795 14.9034 53.9082 14.4017Z" fill="#F5F5F7"/>
<path d="M40.714 20.7342C40.714 21.6185 39.9905 22.3356 39.0963 22.3356C38.202 22.3356 37.4785 21.6185 37.4785 20.7342C37.4785 19.8499 38.202 19.1328 39.0963 19.1328C39.9905 19.1328 40.714 19.8499 40.714 20.7342Z" fill="#613394"/>
<path d="M36.8546 20.7342C36.8546 21.6185 36.1311 22.3356 35.2369 22.3356C34.3427 22.3356 33.6191 21.6185 33.6191 20.7342C33.6191 19.8499 34.3427 19.1328 35.2369 19.1328C36.1311 19.1328 36.8546 19.8499 36.8546 20.7342Z" fill="#613394"/>
<path d="M5.54205 5.68251L3.76721 4.96692C4.9892 1.95091 7.88634 0 11.1505 0C14.4147 0 17.2363 1.90271 18.484 4.84791L16.7212 5.59212C15.7726 3.35497 13.5854 1.91024 11.1505 1.91024C8.7156 1.91024 6.46949 3.39112 5.54205 5.68401V5.68251Z" fill="#613394"/>
<path d="M55.1 5.80237L51.7724 3.59083L47.9856 5.74813L44.2773 3.5833L40.9482 5.63816L39.9407 4.01566L44.2501 1.35519L47.9977 3.54262L51.8509 1.34766L56.1619 4.21452L55.1 5.80237Z" fill="#613394"/>
<path d="M27.0214 24.0004H16.1035V19.1465H18.0173V22.0917H25.1061V19.2173H27.0214V24.0004Z" fill="#613394"/>
</g>
<defs>
<clipPath id="clip0_3456_3236">
<rect width="59" height="24" fill="white"/>
</clipPath>
</defs>
</svg>
