<svg width="24" height="24" viewBox="0 0 24 24" fill="none" xmlns="http://www.w3.org/2000/svg">
<path d="M6.57608 6.50891C6.57608 6.50891 2.7191 3.18501 0.353027 2.56641V13.2422C0.353027 13.2422 0.390086 17.7891 5.37597 18.9921H7.92163C7.92163 18.9921 4.57492 14.0063 6.57608 6.50891Z" fill="#1F46BC"/>
<path d="M16.622 7.06974C12.7279 11.2973 12.0238 18.5894 12.0238 18.5894C12.0238 18.5894 10.8122 11.0892 16.3169 6.08337C15.3961 3.43794 13.8853 1.28852 12.0238 0C8.9051 2.15513 6.75854 6.71908 6.75854 11.9986C6.75854 17.2781 8.9051 21.8449 12.0238 24C13.6259 22.8911 14.9685 21.1493 15.8979 18.9913H18.0074C23.0047 18.1646 23.6945 12.8766 23.6945 12.8766V2.34612C19.8119 3.61468 17.594 5.85534 16.622 7.06974Z" fill="#1F46BC"/>
</svg>
